<?xml version="1.0" encoding="UTF-8"?>
<svg id="Layer_2" data-name="Layer 2" xmlns="http://www.w3.org/2000/svg" viewBox="0 0 38.22 24">
  <defs>
    <style>
      .cls-1 {
        fill: #181818;
      }
    </style>
  </defs>
  <g id="Layer_1-2" data-name="Layer 1">
    <path class="cls-1" d="m15.43,10.73s3.62-.27,3.62-4.47S16.08,0,12.34,0H0v23.5h12.34s7.53.24,7.53-6.94c0,0,.33-5.84-4.44-5.84Zm-3.98-6.55h.89s1.68,0,1.68,2.45-.99,2.8-2.1,2.8h-6.47v-5.24h6.01Zm.54,15.15h-6.55v-6.28h6.9s2.5-.03,2.5,3.23c0,2.75-1.87,3.03-2.85,3.05ZM29.91,5.98c-9.12,0-9.11,9.03-9.11,9.03,0,0-.63,8.98,9.11,8.98,0,0,8.11.46,8.11-6.25h-4.17s.14,2.53-3.8,2.53c0,0-4.17.28-4.17-4.09h12.28s1.34-10.2-8.25-10.2Zm-4.08,7.06s.51-3.62,4.17-3.62,3.62,3.62,3.62,3.62h-7.79Zm8.76-8.77h-9.78V1.38h9.78v2.89Z"/>
  </g>
</svg>