<?xml version="1.0" encoding="UTF-8"?>
<svg id="Layer_2" data-name="Layer 2" xmlns="http://www.w3.org/2000/svg" viewBox="0 0 64.46 19.58">
  <defs>
    <style>
  
    </style>
  </defs>
  <g id="Layer_1-2" data-name="Layer 1">
    <path class="cls-1" d="m59.11,9.47h-2.28c-1.47,0-2.26,1.12-2.26,2.98v6.73h-4.33v-9.71h-1.84c-1.47,0-2.25,1.12-2.25,2.98v6.73h-4.33V5.88h4.33v2.02c.71-1.57,1.68-2.02,3.12-2.02h5.3v2.02c.71-1.57,1.68-2.02,3.12-2.02h1.42v3.59Zm-18.23,4.1h-9.02c.24,1.49,1.15,2.34,2.7,2.34,1.15,0,1.97-.48,2.23-1.33l3.83,1.09c-.94,2.31-3.28,3.73-6.06,3.73-4.69,0-6.84-3.7-6.84-6.86s1.89-6.84,6.58-6.84c4.98,0,6.63,3.78,6.63,6.57,0,.43-.01.87-.05,1.3Zm-4.2-2.58c-.1-1.14-.92-2.21-2.39-2.21-1.36,0-2.18.61-2.44,2.21h4.82Zm-16.52,8.19h3.8l4.75-13.3h-4.35l-2.31,7.74-2.36-7.74h-4.33l4.8,13.3Zm-17.73,0h4.3v-9.71h4.09v9.71h4.27V5.88H6.74v-.82c0-.9.63-1.46,1.63-1.46h2.47V0h-3.17C4.54,0,2.44,1.94,2.44,4.79v1.09H0v3.59h2.44v9.71Z"/>
    <path class="cls-1" d="m61.78,19.58c1.48,0,2.67-1.22,2.67-2.71s-1.2-2.71-2.67-2.71-2.68,1.22-2.68,2.71,1.2,2.71,2.68,2.71Z"/>
  </g>
</svg>