<?xml version="1.0" encoding="UTF-8"?>
<svg id="Layer_2" data-name="Layer 2" xmlns="http://www.w3.org/2000/svg" viewBox="0 0 27.93 32.21">
  <defs>
    <style>
      .cls-1 {
        fill: #181818;
      }
    </style>
  </defs>
  <g id="Layer_1-2" data-name="Layer 1">
    <path class="cls-1" d="m20,30.39c0-.67.02-2.87.02-5.6,0-1.91-.65-3.15-1.38-3.78,4.53-.51,9.28-2.23,9.28-10.08,0-2.23-.79-4.05-2.09-5.48.21-.51.91-2.59-.2-5.4,0,0-1.7-.55-5.59,2.09-1.62-.45-3.36-.68-5.09-.69-1.73,0-3.47.23-5.09.69C5.99-.5,4.28.05,4.28.05c-1.1,2.81-.41,4.89-.2,5.4-1.3,1.43-2.09,3.25-2.09,5.48,0,7.82,4.75,9.58,9.26,10.09-.58.51-1.11,1.41-1.29,2.73-1.16.52-4.1,1.43-5.92-1.7,0,0-1.08-1.96-3.12-2.1,0,0-1.98-.03-.14,1.24,0,0,1.33.63,2.26,2.99,0,0,1.19,3.64,6.85,2.41,0,1.71.03,3.31.03,3.8,0,.37-.19.79-.64.95,1.79.57,3.7.88,5.68.88s3.88-.31,5.67-.88c-.45-.16-.63-.57-.63-.95Z"/>
  </g>
</svg>