<?xml version="1.0" encoding="UTF-8"?>
<svg id="Layer_2" data-name="Layer 2" xmlns="http://www.w3.org/2000/svg" xmlns:xlink="http://www.w3.org/1999/xlink" viewBox="0 0 32 32">
  <defs>
    <style>
   
    </style>
    <radialGradient id="radial-gradient" cx="-374.12" cy="500.63" fx="-374.12" fy="500.63" r="1" gradientTransform="translate(12336.63 16515.78) scale(32.92 -32.92)" gradientUnits="userSpaceOnUse">
      <stop offset="1" stop-color="#181818"/>
      <stop offset="1" stop-color="#000"/>
    </radialGradient>
  </defs>
  <g id="Layer_1-2" data-name="Layer 1">
    <path class="cls-1" d="m10.67,16c0-2.95,2.39-5.33,5.33-5.33s5.33,2.39,5.33,5.33-2.39,5.33-5.33,5.33-5.33-2.39-5.33-5.33Zm-2.88,0c0,4.54,3.68,8.22,8.22,8.22s8.22-3.68,8.22-8.22-3.68-8.22-8.22-8.22-8.22,3.68-8.22,8.22Zm14.84-8.54c0,.38.11.75.32,1.07.21.32.51.56.86.71.35.15.74.18,1.11.11.37-.07.71-.26.98-.53.27-.27.45-.61.53-.98.07-.37.04-.76-.11-1.11-.15-.35-.39-.65-.71-.86-.32-.21-.69-.32-1.07-.32h0c-.51,0-1,.2-1.36.56-.36.36-.56.85-.56,1.36Zm-13.09,21.57c-1.56-.07-2.41-.33-2.97-.55-.75-.29-1.28-.64-1.84-1.2-.56-.56-.91-1.09-1.2-1.84-.22-.56-.48-1.41-.55-2.97-.08-1.69-.09-2.19-.09-6.47s.02-4.78.09-6.47c.07-1.56.33-2.41.55-2.97.29-.75.64-1.28,1.2-1.84.56-.56,1.09-.91,1.84-1.2.56-.22,1.41-.48,2.97-.55,1.69-.08,2.19-.09,6.46-.09s4.78.02,6.47.09c1.56.07,2.41.33,2.97.55.75.29,1.28.64,1.84,1.2s.91,1.09,1.2,1.84c.22.56.48,1.41.55,2.97.08,1.69.09,2.19.09,6.47s-.02,4.78-.09,6.47c-.07,1.56-.33,2.41-.55,2.97-.29.75-.64,1.28-1.2,1.84-.56.56-1.09.91-1.84,1.2-.56.22-1.41.48-2.97.55-1.69.08-2.19.09-6.47.09s-4.78-.02-6.46-.09ZM9.4.1c-1.7.08-2.87.35-3.88.74-1.05.41-1.94.96-2.83,1.85-.89.89-1.44,1.78-1.85,2.83-.4,1.02-.67,2.18-.74,3.88-.08,1.71-.1,2.25-.1,6.6s.02,4.89.1,6.6c.08,1.7.35,2.87.74,3.88.41,1.05.96,1.95,1.85,2.83.89.89,1.78,1.44,2.83,1.85,1.02.4,2.18.67,3.88.74,1.71.08,2.25.1,6.6.1s4.89-.02,6.6-.1c1.7-.08,2.87-.35,3.88-.74,1.05-.41,1.94-.96,2.83-1.85.89-.89,1.44-1.78,1.85-2.83.4-1.02.67-2.18.74-3.88.08-1.71.1-2.25.1-6.6s-.02-4.89-.1-6.6c-.08-1.7-.35-2.87-.74-3.88-.41-1.05-.96-1.94-1.85-2.83-.89-.89-1.78-1.44-2.83-1.85-1.02-.4-2.18-.67-3.88-.74-1.71-.08-2.25-.1-6.6-.1s-4.89.02-6.6.1Z"/>
  </g>
</svg>