<?xml version="1.0" encoding="UTF-8"?>
<svg id="Layer_2" data-name="Layer 2" xmlns="http://www.w3.org/2000/svg" viewBox="0 0 32.94 31.36">
  <defs>
    <style>
    
    </style>
  </defs>
  <g id="Layer_1-2" data-name="Layer 1">
    <path class="cls-1" d="m7.48,31.36V10.2H.42v21.16h7.06ZM3.95,7.31c2.46,0,3.99-1.62,3.99-3.66-.05-2.08-1.53-3.66-3.95-3.66S0,1.58,0,3.66s1.53,3.66,3.9,3.66h.05Zm7.44,24.05h7.06v-11.82c0-.63.05-1.26.23-1.72.51-1.26,1.67-2.57,3.62-2.57,2.55,0,3.58,1.94,3.58,4.78v11.32h7.06v-12.13c0-6.5-3.48-9.52-8.13-9.52-3.81,0-5.48,2.12-6.41,3.56h.05v-3.07h-7.06c.09,1.99,0,21.16,0,21.16Z"/>
  </g>
</svg>