<?xml version="1.0" encoding="UTF-8"?>
<svg id="Layer_2" data-name="Layer 2" xmlns="http://www.w3.org/2000/svg" xmlns:xlink="http://www.w3.org/1999/xlink" viewBox="0 0 62 51">
  <defs>
    <style>
      .cls-1, .cls-2 {
        fill: none;
      }

      .cls-2 {
        clip-path: url(#clippath);
      }

      .cls-3 {
        fill: #f5f5f7;
      }
    </style>
    <clipPath id="clippath">
      <rect class="cls-1" width="62" height="51"/>
    </clipPath>
  </defs>
  <g id="Layer_1-2" data-name="Layer 1">
    <g class="cls-2">
      <path class="cls-3" d="m61.82,28.4c-.36-2.59-1.25-5.04-2.64-7.29-1.21-1.97-2.76-3.71-4.61-5.2h0S35.14.81,35.14.81c-.01-.01-.03-.02-.04-.04C34.45.28,33.58,0,32.64,0s-1.85.28-2.56.78c-.76.54-1.19,1.25-1.22,2.01-.03.71.31,1.39.94,1.92,1.25,1,2.5,2.02,3.75,3.04,1.21.99,2.46,2.01,3.71,3.01l-23.81-.02c-2.72,0-4.58,1.29-4.96,3.46-.17.95.13,1.99.79,2.79.7.85,1.72,1.31,2.87,1.31h1.81c2.51,0,5.03,0,7.54-.01h2.4S2.29,34.43,2.29,34.43l-.09.06c-1.21.94-2,2.25-2.17,3.6-.13,1.02.11,1.96.68,2.71.69.89,1.76,1.38,3.02,1.38s2.5-.47,3.56-1.34l11.67-9.65c-.05.47-.11,1.16-.1,1.66.01.79.27,2.39.66,3.68.83,2.66,2.22,5.09,4.13,7.23,1.99,2.22,4.42,3.99,7.22,5.24,2.96,1.32,6.13,1.99,9.44,1.99h.03c3.32,0,6.51-.69,9.47-2.03,2.8-1.27,5.23-3.04,7.22-5.26,1.91-2.15,3.3-4.59,4.13-7.25.41-1.32.67-2.67.78-4.05.1-1.33.06-2.68-.13-4.02Zm-21.25,12.75c-7.3,0-13.21-5.35-13.21-11.95s5.92-11.95,13.21-11.95,13.21,5.35,13.21,11.95c0,6.6-5.92,11.95-13.21,11.95Zm7.62-13c.11,1.97-.67,3.8-2.04,5.15-1.39,1.38-3.37,2.25-5.59,2.25s-4.2-.87-5.59-2.25c-1.37-1.35-2.14-3.18-2.04-5.15.1-1.91,1.03-3.6,2.42-4.8,1.37-1.18,3.2-1.89,5.21-1.89s3.84.72,5.21,1.89c1.39,1.2,2.32,2.88,2.42,4.8Z"/>
    </g>
  </g>
</svg>