<?xml version="1.0" encoding="UTF-8"?>
<svg id="Layer_2" data-name="Layer 2" xmlns="http://www.w3.org/2000/svg" xmlns:xlink="http://www.w3.org/1999/xlink" viewBox="0 0 33 50">
  <defs>
    <style>
      .cls-1 {
        fill: #b4b4b4;
      }

      .cls-2 {
        fill: #e7e7e7;
      }

      .cls-3, .cls-4 {
        fill: none;
      }

      .cls-4 {
        clip-path: url(#clippath);
      }

      .cls-5 {
        fill: #f5f5f7;
      }

      .cls-6 {
        fill: #919197;
      }
    </style>
    <clipPath id="clippath">
      <rect class="cls-3" width="33" height="50"/>
    </clipPath>
  </defs>
  <g id="Layer_1-2" data-name="Layer 1">
    <g class="cls-4">
      <g>
        <path class="cls-5" d="m16.5,25c0-4.6,3.69-8.33,8.25-8.33s8.25,3.73,8.25,8.33-3.69,8.33-8.25,8.33-8.25-3.73-8.25-8.33Z"/>
        <path class="cls-5" d="m0,41.67C0,37.06,3.7,33.33,8.25,33.33h8.25v8.33c0,4.6-3.69,8.33-8.25,8.33S0,46.27,0,41.67Z"/>
        <path class="cls-1" d="m16.5,0v16.67h8.25c4.56,0,8.25-3.73,8.25-8.33S29.3,0,24.75,0h-8.25Z"/>
        <path class="cls-2" d="m0,8.33C0,12.94,3.7,16.67,8.25,16.67h8.25V0h-8.25C3.7,0,0,3.73,0,8.33Z"/>
        <path class="cls-6" d="m0,25c0,4.6,3.69,8.33,8.25,8.33h8.25v-16.67h-8.25c-4.56,0-8.25,3.73-8.25,8.33Z"/>
      </g>
    </g>
  </g>
</svg>