<?xml version="1.0" encoding="UTF-8"?>
<svg id="Layer_2" data-name="Layer 2" xmlns="http://www.w3.org/2000/svg" viewBox="0 0 52 45.33">
  <defs>
    <style>
      .cls-1 {
        fill: #f5f5f7;
      }
    </style>
  </defs>
  <g id="Layer_1-2" data-name="Layer 1">
    <path class="cls-1" d="m52,22.67c0-3.37-4.31-6.57-10.93-8.55,1.53-6.6.85-11.85-2.14-13.53-.69-.39-1.49-.58-2.37-.58v2.31c.49,0,.88.09,1.21.27,1.44.81,2.07,3.89,1.58,7.85-.12.98-.31,2-.54,3.05-2.08-.5-4.35-.88-6.73-1.13-1.43-1.92-2.91-3.66-4.41-5.19,3.46-3.14,6.7-4.87,8.9-4.87V0c-2.91,0-6.73,2.03-10.59,5.56C22.12,2.05,18.3.04,15.39.04v2.31c2.19,0,5.45,1.71,8.9,4.83-1.48,1.53-2.97,3.26-4.38,5.18-2.4.25-4.66.63-6.74,1.14-.24-1.04-.42-2.04-.55-3.01-.5-3.96.12-7.04,1.55-7.86.32-.19.73-.27,1.22-.27V.05c-.89,0-1.7.19-2.4.58-2.98,1.68-3.65,6.92-2.11,13.5C4.29,16.12,0,19.31,0,22.67s4.31,6.57,10.93,8.55c-1.53,6.6-.85,11.85,2.14,13.53.69.39,1.49.58,2.38.58,2.91,0,6.73-2.03,10.59-5.56,3.86,3.51,7.67,5.52,10.59,5.52.89,0,1.7-.19,2.4-.58,2.98-1.68,3.65-6.92,2.11-13.5,6.57-1.98,10.86-5.18,10.86-8.54Zm-13.8-6.92c-.39,1.34-.88,2.72-1.43,4.1-.43-.83-.89-1.66-1.39-2.49-.49-.83-1.01-1.64-1.53-2.43,1.51.22,2.96.49,4.35.82Zm-4.85,11.05c-.83,1.4-1.67,2.73-2.55,3.96-1.58.13-3.18.21-4.79.21s-3.2-.07-4.77-.2c-.88-1.23-1.74-2.55-2.57-3.94-.81-1.36-1.54-2.74-2.2-4.13.66-1.39,1.4-2.78,2.19-4.14.83-1.4,1.67-2.73,2.55-3.96,1.58-.13,3.18-.21,4.79-.21s3.2.07,4.77.2c.88,1.23,1.74,2.55,2.57,3.94.81,1.36,1.54,2.74,2.2,4.13-.67,1.39-1.4,2.78-2.19,4.14Zm3.42-1.35c.57,1.39,1.06,2.78,1.46,4.13-1.39.33-2.85.61-4.37.83.52-.8,1.04-1.62,1.53-2.46.49-.83.94-1.67,1.38-2.5Zm-10.75,11.07c-.99-1-1.97-2.11-2.95-3.32.95.04,1.93.07,2.91.07s1.98-.02,2.95-.07c-.95,1.21-1.94,2.32-2.91,3.32Zm-7.89-6.11c-1.5-.22-2.96-.49-4.35-.82.39-1.34.88-2.72,1.43-4.1.43.83.89,1.66,1.39,2.49.5.83,1.01,1.64,1.53,2.43Zm7.83-21.59c.99,1,1.97,2.11,2.95,3.32-.95-.04-1.93-.07-2.91-.07s-1.98.02-2.95.07c.95-1.21,1.94-2.32,2.91-3.32Zm-7.84,6.11c-.52.8-1.04,1.62-1.53,2.46-.49.83-.94,1.66-1.38,2.49-.57-1.39-1.06-2.78-1.46-4.13,1.39-.32,2.85-.6,4.37-.82Zm-9.59,12.99c-3.75-1.57-6.18-3.62-6.18-5.25s2.43-3.69,6.18-5.25c.91-.38,1.91-.73,2.94-1.05.6,2.03,1.4,4.15,2.38,6.32-.98,2.16-1.76,4.26-2.35,6.29-1.05-.32-2.05-.67-2.97-1.06Zm5.7,14.83c-1.44-.81-2.07-3.89-1.58-7.85.12-.98.31-2,.54-3.05,2.08.5,4.35.88,6.73,1.13,1.43,1.92,2.91,3.66,4.41,5.19-3.46,3.14-6.7,4.87-8.9,4.87-.48-.01-.88-.1-1.2-.28Zm25.14-7.91c.5,3.96-.12,7.04-1.55,7.86-.32.19-.73.27-1.22.27-2.19,0-5.45-1.71-8.9-4.83,1.48-1.53,2.97-3.26,4.38-5.18,2.4-.25,4.66-.63,6.74-1.14.24,1.05.43,2.05.55,3.02Zm4.08-6.92c-.91.38-1.91.73-2.94,1.05-.6-2.03-1.4-4.15-2.38-6.32.98-2.16,1.76-4.26,2.35-6.29,1.05.32,2.05.67,2.98,1.06,3.75,1.57,6.18,3.62,6.18,5.25-.01,1.63-2.44,3.69-6.19,5.25Z"/>
  </g>
</svg>