<?xml version="1.0" encoding="UTF-8"?>
<svg id="Layer_2" data-name="Layer 2" xmlns="http://www.w3.org/2000/svg" viewBox="0 0 59.12 58.14">
  <defs>
    <style>
      .cls-1 {
        fill: #f24e1e;
      }
    </style>
  </defs>
  <g id="Layer_1-2" data-name="Layer 1">
    <path class="cls-1" d="m43.32,11.74l2.9-.7v8l-2.9,2.2v-9.5Z"/>
    <path class="cls-1" d="m47.72,10.64l3.3-.8v5.5l-3.3,2.5v-7.2Z"/>
    <path class="cls-1" d="m33.72,14.04l8-2v10.3l-.5.4-7.5-8.7Z"/>
    <path class="cls-1" d="m52.52,9.54l5.6-1.4c.3-.1.7.1.9.4.2.3.1.7-.2.9l-6.2,4.7v-4.6h-.1Z"/>
    <path class="cls-1" d="m.42,24.04c1.5-7,7.3-13.3,16.8-18.4C24.32,1.84,30.82.14,31.02.04c.3-.1.6,0,.8.3.2.3.2.6,0,.9l-4.9,7.3,25.4,29.6c.1.1.2.3.2.4.5,6.6-.8,10.9-3.8,12.9-4.4,2.8-10.7-.6-11-.7-.2-.1-.3-.3-.4-.5-.7-2.8-2.4-4.6-2.9-5.2-4.8-.2-8.8-1.1-12.1-2.5l-1.5,14.9c0,.3-.2.5-.5.6-.1,0-.2.1-.3.1-.2,0-.3-.1-.5-.2C4.72,45.64-1.78,34.24.42,24.04Z"/>
  </g>
</svg>