<?xml version="1.0" encoding="UTF-8"?>
<svg id="Layer_2" data-name="Layer 2" xmlns="http://www.w3.org/2000/svg" viewBox="0 0 8.85 10.02">
  <defs>
    <!-- <style>
      .cls-1 {
        fill: none;
      }
    </style> -->
  </defs>
  <g id="Layer_1-2" data-name="Layer 1">
    <path class="cls-1" d="m2.37,4.97c-.1,0-.21.04-.31.1C.91,5.8.11,7.04,0,8.48c-.02.31.15.57.43.69,2.6,1.09,5.28,1.19,8,0,.27-.12.45-.38.42-.69-.11-1.44-.91-2.68-2.07-3.41-.26-.16-.57-.11-.79.04-.46.31-1,.48-1.56.49-.56,0-1.11-.17-1.56-.49-.11-.08-.25-.13-.38-.14-.03,0-.07,0-.1,0Z"/>
    <path class="cls-1" d="m4.43,0C3.02,0,1.88,1.14,1.88,2.55s1.14,2.55,2.55,2.55,2.55-1.14,2.55-2.55S5.83,0,4.43,0Z"/>
  </g>
</svg>