<?xml version="1.0" encoding="UTF-8"?>
<svg id="Layer_2" data-name="Layer 2" xmlns="http://www.w3.org/2000/svg" viewBox="0 0 9.99 9.99">
  <defs>
    <!-- <style>
      .cls-1 {
        fill: none;
        fill-rule: evenodd;
      }
    </style> -->
  </defs>
  <g id="Layer_2-2" data-name="Layer 2">
    <path class="cls-1" d="m4.99,0c-.99,0-1.95.29-2.77.84-.82.55-1.46,1.33-1.84,2.24C0,3.99-.1,5,.1,5.97c.19.97.67,1.86,1.37,2.56.7.7,1.59,1.17,2.56,1.37.97.19,1.97.09,2.88-.28.91-.38,1.69-1.02,2.24-1.84.55-.82.84-1.79.84-2.77,0-1.32-.53-2.59-1.46-3.53-.94-.94-2.21-1.46-3.53-1.46Zm0,7.13c-.42,0-.84-.13-1.19-.36-.35-.23-.63-.57-.79-.96-.16-.39-.2-.82-.12-1.24.08-.41.29-.8.59-1.09.3-.3.68-.5,1.09-.59.41-.08.84-.04,1.24.12.39.16.72.44.96.79.23.35.36.77.36,1.19,0,.57-.23,1.11-.63,1.51-.4.4-.94.63-1.51.63Z"/>
  </g>
</svg>