<?xml version="1.0" encoding="UTF-8"?>
<svg id="Layer_2" data-name="Layer 2" xmlns="http://www.w3.org/2000/svg" viewBox="0 0 6.46 9.9">
  <defs>
    <!-- <style>
      .cls-1 {
        fill-rule: evenodd;
      }

      .cls-1, .cls-2 {
        fill: none;
      }
    </style> -->
  </defs>
  <g id="Layer_2-2" data-name="Layer 2">
    <g>
      <path class="cls-1" d="m0,3.04C.1,1.43,1.45.1,3.08,0c1.85-.08,3.37,1.38,3.37,3.22,0,.74-.25,1.4-.66,1.95-.5.66-.79,1.45-.88,2.26-.01.13-.12.23-.25.23H1.79c-.13,0-.24-.1-.25-.23-.11-.84-.45-1.65-.95-2.35C.18,4.52-.03,3.8,0,3.04Z"/>
      <path class="cls-2" d="m4.88,8.68c0,.14-.11.25-.25.25H1.82c-.14,0-.25-.11-.25-.25v-.09c0-.14.11-.25.25-.25h2.81c.14,0,.25.11.25.25v.09Z"/>
      <path class="cls-2" d="m1.84,9.66c0,.14.11.25.25.25h2.27c.14,0,.25-.11.25-.25v-.09c0-.14-.11-.25-.25-.25h-2.27c-.14,0-.25.11-.25.25v.09Z"/>
    </g>
  </g>
</svg>